# xmcd
#
# Track frame offsets:
#	150
#	12673
#	24480
#	32848
#	41788
#	55403
#	66915
#	86683
#	97650
#	109770
#	122155
#	134773
#	145353
#	156283
#
# Disc length: 2205 seconds
#
# Revision: 5
# Processed by: cddbd v1.5.2PL0 Copyright (c) Steve Scherf et al.
# Submitted via: audiograbber 1.82.01
#
DISCID=ca089b0e
DTITLE=Various Artist - Country's Greatest Hits, CD 4
DYEAR=1991
DGENRE=Country
TTITLE0=Glen Campbell - By The Time I Get To Phoenix (live)
TTITLE1=Kenny Rogers - Me And Bobby McGee
TTITLE2=Willie Nelson - Slow Down Old World
TTITLE3=Ned Miller - Invisible Tears
TTITLE4=Anita Perras - How's A Girl To Know
TTITLE5=Charley Pride - It's Gonna Take A Little Bit Longer
TTITLE6=Gary Fjellgaard - Cowboy In Your Heart
TTITLE7=Loretta Lynn - Spring Fever (live)
TTITLE8=Hank Locklin - It's A Little More Like Heaven
TTITLE9=Conway Twitty - Crazy Dreams
TTITLE10=Leroy van Dyke - Auctioneer
TTITLE11=James O'Gwynn - My Name Is Mud
TTITLE12=Jerry Lee Lewis - I Can't Seem To Say Goodbye
TTITLE13=Frankie Laine - Rawhide
EXTD=
EXTT0=
EXTT1=
EXTT2=
EXTT3=
EXTT4=
EXTT5=
EXTT6=
EXTT7=
EXTT8=
EXTT9=
EXTT10=
EXTT11=
EXTT12=
EXTT13=
PLAYORDER=
